# xmcd
#
# Track frame offsets:
#	150
#	18257
#	34235
#	57782
#	72402
#	86849
#	108047
#	123694
#	139319
#	156666
#	171619
#
# Disc length: 2471 seconds
# Revision: 0
# Processed by: cddbd v1.5.2PL0 Copyright (c) Steve Scherf et al.
# Submitted via: dBpowerAMP V12.0
#
DISCID=a209a50b
DTITLE=Muddy Waters - Folk Singer (SACD Ger)
DYEAR=2018
DGENRE=Blues
TTITLE0=My Home Is in the Delta
TTITLE1=Long Distance
TTITLE2=My Captain
TTITLE3=Good Morning Little Schoolgirl
TTITLE4=You Gonna Need My Help
TTITLE5=Cold Weather Blues
TTITLE6=Big Leg Woman
TTITLE7=Country Boy
TTITLE8=Feel Like Going Home
TTITLE9=Still A Fool
TTITLE10=Young Fashioned Way
EXTD=
EXTT0=
EXTT1=
EXTT2=
EXTT3=
EXTT4=
EXTT5=
EXTT6=
EXTT7=
EXTT8=
EXTT9=
EXTT10=
PLAYORDER=
